<svg width="17" height="17" viewBox="0 0 17 17" fill="none" xmlns="http://www.w3.org/2000/svg">
<path d="M5.92786 3.11878C6.87785 1.41459 7.35284 0.5625 8.06299 0.5625C8.77313 0.5625 9.24813 1.41459 10.1981 3.11878L10.4439 3.55967C10.7138 4.04395 10.8488 4.28609 11.0593 4.44586C11.2697 4.60562 11.5319 4.66493 12.0561 4.78354L12.5333 4.89152C14.3781 5.30892 15.3005 5.51761 15.5199 6.2233C15.7394 6.92898 15.1106 7.6643 13.8529 9.13494L13.5275 9.51542C13.1702 9.93333 12.9915 10.1423 12.9111 10.4008C12.8307 10.6593 12.8577 10.9381 12.9117 11.4957L12.9609 12.0033C13.1511 13.9654 13.2461 14.9465 12.6716 15.3827C12.0971 15.8188 11.2335 15.4212 9.50623 14.6259L9.05937 14.4201C8.56854 14.1941 8.32313 14.0811 8.06299 14.0811C7.80285 14.0811 7.55743 14.1941 7.0666 14.4201L6.61974 14.6259C4.89249 15.4212 4.02887 15.8188 3.45435 15.3827C2.87983 14.9465 2.9749 13.9654 3.16504 12.0033L3.21423 11.4957C3.26826 10.9381 3.29527 10.6593 3.21489 10.4008C3.1345 10.1423 2.95581 9.93333 2.59843 9.51542L2.27306 9.13494C1.01542 7.6643 0.386607 6.92898 0.606054 6.2233C0.825501 5.51761 1.74788 5.30892 3.59264 4.89152L4.0699 4.78354C4.59413 4.66493 4.85624 4.60562 5.0667 4.44586C5.27715 4.28609 5.41213 4.04395 5.68209 3.55968L5.92786 3.11878Z" stroke="#EC8514" stroke-width="1.125"/>
</svg>
