<svg width="40" height="40" viewBox="0 0 40 40" fill="none" xmlns="http://www.w3.org/2000/svg">
<path fill-rule="evenodd" clip-rule="evenodd" d="M9.9961 4.99377C9.9961 8.67721 7.01009 11.6632 3.32666 11.6632C7.01009 11.6632 9.9961 14.6492 9.9961 18.3327C9.9961 14.6492 12.9821 11.6632 16.6655 11.6632C12.9821 11.6632 9.9961 8.67721 9.9961 4.99377Z" stroke="white" stroke-width="1.5" stroke-linecap="round" stroke-linejoin="round"/>
<path fill-rule="evenodd" clip-rule="evenodd" d="M28.3368 25.0021C28.3368 20.3978 24.6043 16.6653 20 16.6653C24.6043 16.6653 28.3368 12.9328 28.3368 8.32849C28.3368 12.9328 32.0693 16.6653 36.6736 16.6653C32.0693 16.6653 28.3368 20.3978 28.3368 25.0021Z" stroke="white" stroke-width="1.5" stroke-linecap="round" stroke-linejoin="round"/>
<path d="M28.3366 25.0021V26.6694" stroke="white" stroke-width="1.5" stroke-linecap="round" stroke-linejoin="round"/>
<path d="M28.3366 8.32849V6.66113" stroke="white" stroke-width="1.5" stroke-linecap="round" stroke-linejoin="round"/>
<path d="M16.6652 35.0063V36.6737" stroke="white" stroke-width="1.5" stroke-linecap="round" stroke-linejoin="round"/>
<path d="M16.6652 23.3347V21.6674" stroke="white" stroke-width="1.5" stroke-linecap="round" stroke-linejoin="round"/>
<path d="M9.99579 18.3326V20" stroke="white" stroke-width="1.5" stroke-linecap="round" stroke-linejoin="round"/>
<path d="M9.99579 3.32642V4.99378" stroke="white" stroke-width="1.5" stroke-linecap="round" stroke-linejoin="round"/>
<path fill-rule="evenodd" clip-rule="evenodd" d="M16.6655 22.5011C16.6655 26.1845 13.6795 29.1705 9.99609 29.1705C13.6795 29.1705 16.6655 32.1566 16.6655 35.84C16.6655 32.1566 19.6516 29.1705 23.335 29.1705C19.6516 29.1705 16.6655 26.1845 16.6655 22.5011Z" stroke="white" stroke-width="1.5" stroke-linecap="round" stroke-linejoin="round"/>
</svg>
