<svg width="25" height="25" viewBox="0 0 25 25" fill="none" xmlns="http://www.w3.org/2000/svg">
<path fill-rule="evenodd" clip-rule="evenodd" d="M6.00264 3.00122C6.00264 5.21128 4.21104 7.00289 2.00098 7.00289C4.21104 7.00289 6.00264 8.79449 6.00264 11.0046C6.00264 8.79449 7.79425 7.00289 10.0043 7.00289C7.79425 7.00289 6.00264 5.21128 6.00264 3.00122Z" stroke="#676F71" stroke-width="1.5" stroke-linecap="round" stroke-linejoin="round"/>
<path fill-rule="evenodd" clip-rule="evenodd" d="M17.007 15.0064C17.007 12.2438 14.7675 10.0043 12.0049 10.0043C14.7675 10.0043 17.007 7.76477 17.007 5.0022C17.007 7.76477 19.2465 10.0043 22.009 10.0043C19.2465 10.0043 17.007 12.2438 17.007 15.0064Z" stroke="#676F71" stroke-width="1.5" stroke-linecap="round" stroke-linejoin="round"/>
<path d="M17.007 15.0063V16.0068" stroke="#676F71" stroke-width="1.5" stroke-linecap="round" stroke-linejoin="round"/>
<path d="M17.007 5.00213V4.00171" stroke="#676F71" stroke-width="1.5" stroke-linecap="round" stroke-linejoin="round"/>
<path d="M10.0041 21.0088V22.0092" stroke="#676F71" stroke-width="1.5" stroke-linecap="round" stroke-linejoin="round"/>
<path d="M10.0041 14.0058V13.0054" stroke="#676F71" stroke-width="1.5" stroke-linecap="round" stroke-linejoin="round"/>
<path d="M6.00265 11.0046V12.0051" stroke="#676F71" stroke-width="1.5" stroke-linecap="round" stroke-linejoin="round"/>
<path d="M6.00265 2.00073V3.00115" stroke="#676F71" stroke-width="1.5" stroke-linecap="round" stroke-linejoin="round"/>
<path fill-rule="evenodd" clip-rule="evenodd" d="M10.0041 13.5056C10.0041 15.7157 8.2125 17.5073 6.00244 17.5073C8.2125 17.5073 10.0041 19.2989 10.0041 21.5089C10.0041 19.2989 11.7957 17.5073 14.0058 17.5073C11.7957 17.5073 10.0041 15.7157 10.0041 13.5056Z" stroke="#676F71" stroke-width="1.5" stroke-linecap="round" stroke-linejoin="round"/>
</svg>
